<?xml version="1.0" encoding="UTF-8"?>
<svg width="105px" height="28px" viewBox="0 0 105 28" version="1.1" xmlns="http://www.w3.org/2000/svg" xmlns:xlink="http://www.w3.org/1999/xlink">
    <!-- Generator: Sketch 58 (84663) - https://sketch.com -->
    <title>Logos/Activitésbydecat/landskape</title>
    <desc>Created with Sketch.</desc>
    <g id="Logos/Activitésbydecat/landskape" stroke="none" stroke-width="1" fill="none" fill-rule="evenodd">
        <g id="Group" transform="translate(-0.000000, -0.000000)">
            <g id="Logos/Activités/type-(1)" transform="translate(0.000000, -0.000000)" fill="#262628">
                <g id="Group" transform="translate(3.281250, 0.000000)">
                    <path d="M11.7833039,0.52 C12.2340984,0.52 12.6,0.882293545 12.6,1.32964731 L12.6,2.1748489 L12.5913745,2.18294987 L12.5913745,12.9770472 L10.2320807,12.9770472 L10.2320807,11.05 L7.181,11.05 L9.545,8.709 L10.2320807,8.71 L10.2320807,4.52098089 L1.66834805,13 L0,13 L0,11.3465013 L10.931198,0.52 L11.7833039,0.52 Z" id="Combined-Shape-Copy"></path>
                    <path d="M22.5546371,0.000133790279 C23.0535255,0.000133790279 23.5418965,0.0416087766 24.0202074,0.124558749 C24.498061,0.20795469 24.941619,0.32658207 25.3513385,0.480886858 L25.0833746,2.97384572 C24.6754842,2.80794577 24.2566192,2.68619662 23.8263223,2.60904422 C23.3964826,2.53189183 22.93189,2.49309265 22.4325444,2.49309265 C21.2518572,2.49309265 20.2577387,2.85521834 19.4492743,3.57946971 C18.6412672,4.30372109 18.1734736,5.25942964 18.0458936,6.44659538 C17.9196853,7.62216596 18.1862774,8.56271162 18.8474988,9.26912429 C19.5078057,9.97553696 20.4406491,10.3287433 21.6460293,10.3287433 C22.120682,10.3287433 22.5971638,10.2872683 23.0745602,10.2043183 C23.5519565,10.1209224 24.0060318,10.002295 24.4363287,9.84799023 L24.1688222,12.3409491 C23.7138323,12.4956998 23.2263759,12.6143272 22.7064528,12.6972772 C22.1860725,12.7802272 21.6762095,12.8221481 21.1773211,12.8221481 C19.2663638,12.8221481 17.7541514,12.2223217 16.641141,11.0235608 C15.528588,9.82390798 15.0713118,8.29825284 15.2702269,6.44659538 C15.4705139,4.5828968 16.257029,3.04252473 17.6293149,1.82547916 C19.0011436,0.60843359 20.6432225,0.000133790279 22.5546371,0.000133790279 Z M27.1140011,2.59994648 L27.3741913,0.178342441 L37.9647085,0.178342441 L37.7045184,2.59994648 L33.760511,2.59994648 L32.6817964,12.6440287 L29.9797512,12.6440287 L31.0580085,2.59994648 L27.1140011,2.59994648 Z M39.2550506,12.6439841 L40.5939553,0.178297845 L43.2964578,0.178297845 L41.957553,12.6439841 L39.2550506,12.6439841 Z M51.2728183,7.17655514 L55.1102804,0.178431635 L58.1049823,0.178431635 L50.5928486,13 L45.8344323,0.178431635 L48.9201322,0.178431635 L51.2728183,7.17655514 Z M59.3041892,12.6439841 L60.643094,0.178297845 L63.3455965,0.178297845 L62.0062344,12.6439841 L59.3041892,12.6439841 Z M65.7145159,2.59994648 L65.9747061,0.178342441 L76.5652233,0.178342441 L76.3050332,2.59994648 L72.3610258,2.59994648 L71.2823112,12.6440287 L68.580266,12.6440287 L69.6585233,2.59994648 L65.7145159,2.59994648 Z M77.5489617,12.6439841 L78.8878664,0.178297845 L87.1961181,0.178297845 L86.9354706,2.59990189 L81.3301787,2.59990189 L81.0544412,5.16466153 L86.0030844,5.16466153 L85.7428942,7.58626557 L80.7947083,7.58626557 L80.5116543,10.2214881 L86.1169462,10.2214881 L85.8572133,12.6439841 L77.5489617,12.6439841 Z M92.9003188,2.66242654 C92.589371,2.83457004 92.415606,3.09278527 92.3785666,3.43707226 C92.3428991,3.76931812 92.4521881,4.05473738 92.706891,4.29199214 C92.9611365,4.52969287 93.5514801,4.81422019 94.4774645,5.14646605 C95.2173374,5.39576194 95.7605816,5.61250219 96.1058251,5.79624084 C96.4515259,5.98042545 96.7400672,6.17977297 96.9728208,6.39294548 C97.3281244,6.71359618 97.5768827,7.08776299 97.7200102,7.51499995 C97.8626803,7.94268287 97.9042925,8.42967949 97.8457611,8.97509786 C97.7181811,10.1622636 97.1945998,11.1005794 96.2750173,11.7891534 C95.3545203,12.4777273 94.1582857,12.8220143 92.685399,12.8220143 C92.101,12.8220143 91.4626424,12.7564571 90.7707835,12.6262346 C90.0789245,12.4955661 89.463888,12.3234226 88.927503,12.1098041 L89.1968387,9.59856055 C89.9453999,9.88353385 90.6230832,10.0913547 91.2303461,10.2215773 C91.8366943,10.3526918 92.4563036,10.417803 93.0896312,10.417803 C93.710155,10.417803 94.190295,10.3107708 94.5300513,10.0971523 C94.8693502,9.88353385 95.0609489,9.57492427 95.1039329,9.1713236 C95.1396005,8.83907774 95.0335124,8.55678025 94.7842968,8.32532307 C94.5350813,8.09386589 93.9520541,7.82985307 93.0343007,7.53283865 C92.2697349,7.28354277 91.7114006,7.06992429 91.3592979,6.89153725 C91.006738,6.71359618 90.7090512,6.51201883 90.4657802,6.28635922 C90.122823,5.96570852 89.8832103,5.5888659 89.746942,5.1553854 C89.6115882,4.72235087 89.573177,4.2264349 89.6330802,3.66852944 C89.7528866,2.55271852 90.2504031,1.66212123 91.1251725,0.997183543 C91.9999419,0.332691826 93.1129522,5.5067062e-14 94.4642035,5.5067062e-14 C95.0847273,5.5067062e-14 95.7121103,0.0535161114 96.3458951,0.160548334 C96.97968,0.26713459 97.5892292,0.427236956 98.175,0.641301402 L97.905207,3.15209896 C97.2503875,2.90280308 96.6193463,2.71594266 96.0120835,2.59107173 C95.4048207,2.46664677 94.8085325,2.40421131 94.2245907,2.40421131 C93.6520809,2.40421131 93.2108094,2.49028305 92.9003188,2.66242654 Z" id="Shape"></path>
                </g>
            </g>
            <g id="activtités/by-decat" transform="translate(45.733333, 16.800000)" fill="#0082C3">
                <g id="Logos/blue" transform="translate(10.254237, 0.000000)">
                    <path d="M45,0 L45,11 L0,11 L0,0 L45,0 Z M30.3077961,2.40625 L28.828125,2.40625 L28.828125,8.06111842 L32.0441447,8.06111842 L32.0435,7.32025 L32.1212664,7.40488158 C32.6997533,7.99830263 33.4413651,8.30196053 34.3087993,8.30196053 C35.1262007,8.30196053 35.9021546,7.98990789 36.4720559,7.41443421 C36.8861869,7.00148135 37.1568916,6.48907744 37.2666126,5.91435738 L37.2666126,5.91435738 L37.265625,8.06227632 L38.7556579,8.06227632 L38.7556579,4.91048684 L41.0272697,8.06227632 L42.3370066,8.06227632 L42.3370066,2.40625 L40.8460855,2.40625 L40.8460855,5.54761842 L38.6102961,2.40625 L37.265625,2.40625 L37.2662703,4.7588228 C37.151997,4.19558381 36.8634942,3.67455739 36.4140296,3.24601316 C35.842648,2.70209211 35.1007401,2.40625 34.3170888,2.40625 C33.4828125,2.40625 32.7571875,2.68617105 32.1795888,3.23848684 C31.601102,3.78993421 31.2890625,4.51101316 31.2890625,5.29519737 C31.2890625,5.86371148 31.4172866,6.36933926 31.6715301,6.81270942 L31.6715301,6.81270942 L30.3077961,6.81146053 L30.3077961,2.40625 Z M14.3245066,2.40700109 C11.9427632,2.45997478 11.25,4.40986951 11.25,5.31389583 C11.25,7.21776425 12.7486184,8.1686853 13.9736842,8.28360636 C15.7351974,8.45179057 16.700625,7.32515899 16.700625,7.32515899 C16.700625,7.32515899 16.6890789,7.32255373 16.7482895,7.32139583 C17.0285879,7.31843906 17.6672927,7.32245182 17.9281525,7.32430734 L17.9281525,7.32430734 L18.0423355,7.32515899 L18.0423355,8.17302741 L19.4752303,8.17302741 L19.4752303,2.52076425 L17.9179934,2.52076425 L17.9108277,2.53268359 C17.7833386,2.74473565 15.9952796,5.71840429 15.8154276,5.99502741 C15.5969408,6.33313267 15.1214803,6.86836951 14.4020724,6.85939583 C13.2317763,6.84173794 12.7909539,6.05060636 12.7909539,5.34110636 C12.7909539,4.53289583 13.4490789,3.83844846 14.3111842,3.8236853 C15.2828289,3.80313267 16.0066776,4.71439583 16.0066776,4.71439583 L16.0066776,4.71439583 L16.7666447,3.51510636 L16.7608033,3.50758623 C16.6830189,3.40898701 15.8304276,2.37446977 14.3245066,2.40700109 Z M23.4870395,2.40625 L19.6875,2.40625 L19.6875,3.75838158 L20.8441776,3.75838158 L20.8441776,8.06517105 L22.3315461,8.06517105 L22.3315461,3.75838158 L23.4870395,3.75838158 L23.4870395,2.40625 Z M25.3939145,2.40625 L23.90625,2.40625 L23.90625,8.06314474 L25.3939145,8.06314474 L25.3939145,5.89846053 L26.9253947,5.89846053 L26.9253947,8.06314474 L28.4136513,8.06314474 L28.4136513,2.40625 L26.9253947,2.40625 L26.9253947,4.55385526 L25.3939145,4.55385526 L25.3939145,2.40625 Z M4.89197368,2.40625 L2.8125,2.40625 L2.8125,8.06227632 L5.09625,8.06227632 C5.95184211,8.06227632 6.525,7.94996053 7.17453947,7.36232895 C7.40665514,7.14944808 7.59375726,6.90911068 7.73485218,6.64259996 L7.73485218,6.64259996 L7.734375,8.05851316 L11.0442434,8.05851316 L11.0442434,6.81840789 L9.22322368,6.81840789 L9.22322368,5.79280263 L10.8,5.79164474 L10.8,4.57527632 L9.22322368,4.57643421 L9.22322368,3.65214474 L11.0442434,3.65098684 L11.0442434,2.40625 L7.734375,2.40625 L7.73461557,3.80804866 C7.59145119,3.53018956 7.40154732,3.28731854 7.16713816,3.08217105 C6.53328947,2.52493421 5.85888158,2.40625 4.89197368,2.40625 L4.89197368,2.40625 Z M34.3253783,3.81338158 C35.1513651,3.81338158 35.837023,4.47888158 35.837023,5.31082895 C35.837023,6.23714474 35.1513651,6.89309211 34.3087993,6.89309211 C33.4996875,6.89309211 32.765773,6.20703947 32.765773,5.31082895 C32.765773,4.47888158 33.451727,3.81338158 34.3253783,3.81338158 Z M4.89197368,3.62232895 C5.98559211,3.62232895 6.57621711,4.19664474 6.57621711,5.21530263 C6.57621711,6.32803947 6.03858553,6.82014474 4.899375,6.82014474 L4.899375,6.82014474 L4.30164474,6.82014474 L4.30164474,3.62232895 Z M17.994227,4.8125 L17.994227,6.09284211 L17.2265625,6.09284211 L17.994227,4.8125 Z" id="Combined-Shape"></path>
                </g>
                <path d="M3.48737959,5.63360324 C3.4694955,5.78205202 3.44394719,5.93482827 3.41073388,6.09193657 C3.37752058,6.24904487 3.33472715,6.40243965 3.28235233,6.55212551 C3.2299775,6.70181136 3.1648293,6.84221707 3.08690578,6.97334683 C3.00898225,7.10447659 2.9144535,7.21828562 2.80331667,7.31477733 C2.69217984,7.41126904 2.56379957,7.48672937 2.418172,7.54116059 C2.27254443,7.59559182 2.10520298,7.61909585 1.91614263,7.61167341 C1.73730176,7.60425098 1.58145705,7.55909848 1.44860383,7.47621457 C1.31575061,7.39333067 1.20589286,7.27766606 1.1190273,7.12921727 L0.984897312,7.53373819 L0,7.53373819 L1.02322016,1.83333333 L2.0809309,1.83333333 L1.67854094,3.84851552 C1.78584547,3.7248082 1.90528383,3.6252253 2.03685962,3.54976383 C2.1684354,3.47430237 2.32108657,3.43780925 2.49481771,3.4402834 C2.67365858,3.44275755 2.82567104,3.47368391 2.95085965,3.53306343 C3.07604826,3.59244294 3.17888022,3.67161444 3.25935861,3.7705803 C3.33983701,3.86954615 3.40115296,3.98397371 3.44330831,4.1138664 C3.48546366,4.24375908 3.51420551,4.3798351 3.52953473,4.52209852 C3.54486394,4.66436193 3.54997361,4.8084788 3.54486387,4.95445344 C3.53975413,5.10042808 3.53081222,5.2389782 3.51803787,5.37010796 L3.48737959,5.63360324 Z M2.45649485,5.38495277 C2.46160459,5.33052155 2.46926909,5.26681323 2.47948856,5.19382591 C2.48970804,5.12083859 2.49673383,5.04537826 2.50056613,4.96744265 C2.50439844,4.88950703 2.50312102,4.81219112 2.49673385,4.73549258 C2.49034667,4.65879404 2.47374027,4.59013751 2.44691414,4.52952092 C2.42008801,4.46890433 2.37984942,4.42004067 2.32619715,4.38292848 C2.27254489,4.34581628 2.20228703,4.3260234 2.11542146,4.32354926 C1.99534259,4.31860096 1.89314934,4.34519764 1.80883864,4.40334008 C1.72452795,4.46148252 1.64916042,4.53385022 1.58273381,4.62044534 L1.25315728,6.46120108 C1.29403519,6.55521864 1.34960277,6.6244937 1.41986169,6.66902834 C1.4901206,6.71356298 1.57890099,6.73830407 1.68620552,6.74325236 C1.79095517,6.74820065 1.88037426,6.73521158 1.95446548,6.70428475 C2.0285567,6.67335792 2.09178878,6.63006101 2.1441636,6.57439271 C2.19653843,6.51872442 2.23933186,6.45439758 2.27254516,6.38141026 C2.30575846,6.30842294 2.33258419,6.23048849 2.35302315,6.14760459 C2.37346211,6.06472068 2.3887911,5.98121949 2.39901057,5.89709852 C2.40923005,5.81297754 2.41944938,5.73256898 2.42966886,5.65587045 L2.45649485,5.38495277 Z M5.36136708,5.76720648 L6.30027697,3.51821862 L7.45762712,3.51821862 L5.31921194,8.13866397 C5.26044994,8.27474202 5.19338562,8.40463276 5.11801697,8.52834008 C5.04264831,8.6520474 4.95386793,8.76152674 4.85167314,8.85678138 C4.74947836,8.95203601 4.63323353,9.02749635 4.50293518,9.08316464 C4.37263683,9.13883294 4.22445662,9.16666667 4.05839009,9.16666667 C3.97663426,9.16666667 3.89743449,9.15862581 3.82078841,9.14254386 C3.74414232,9.12646191 3.66749738,9.10852462 3.59085129,9.08873144 L3.68282614,8.26855601 C3.70326509,8.27103015 3.72242633,8.27288573 3.74031042,8.27412281 C3.7581945,8.27535988 3.77735574,8.27597841 3.79779469,8.27597841 C3.96641609,8.27845255 4.10182215,8.24381502 4.20401693,8.17206478 C4.30621172,8.10031453 4.39179856,7.99145372 4.46078004,7.84547908 L4.61023917,7.51889339 L4.18102322,3.51821862 L5.28855366,3.51821862 L5.36136708,5.76720648 Z" id="by"></path>
            </g>
        </g>
    </g>
</svg>